# xmcd
#
# Track frame offsets:
# 150
# 34672
# 62979
# 91373
# 109691
# 136276
# 216540
#
# Disc length: 3480 seconds
#
#
# Revision: 0
# Processed by: cddbd v1.5.1PL2 Copyright (c) Steve Scherf et al.
# Submitted via: FreeRIP 2.945 
#
DISCID=650d9607
DTITLE=Rusty Wier - Rusty and Son Live at Poor Davids Pub
DYEAR=1900
DGENRE=
TTITLE0=Lay This Guitar Down
TTITLE1=Pirough-Joe
TTITLE2=Quervo's Gold
TTITLE3=1-2 Buckle My Shoe
TTITLE4=Getaway Holiday
TTITLE5=Fannin' The Fire into The Medley
TTITLE6=Cowboy Who Loves To Sing The Blues
EXTD=
EXTT0=
EXTT1=
EXTT2=
EXTT3=
EXTT4=
EXTT5=
EXTT6=
PLAYORDER=
